<svg xmlns="http://www.w3.org/2000/svg" xmlns:xlink="http://www.w3.org/1999/xlink" xmlns:lucid="lucid" width="2254" height="204"><g transform="translate(399.56910741120794 967.8347325678425)" lucid:page-tab-id="0_0"><path d="M-378.57-940.84a6 6 0 0 1 6-6h190a6 6 0 0 1 6 6v150a6 6 0 0 1-6 6h-190a6 6 0 0 1-6-6z" stroke="#febed9" stroke-width="2" fill="#fff0f0"/><use xlink:href="#a" transform="matrix(1,0,0,1,-366.56910741120794,-934.8347325678425) translate(10.125 61.8375)"/><use xlink:href="#b" transform="matrix(1,0,0,1,-366.56910741120794,-934.8347325678425) translate(53.025000000000006 61.8375)"/><use xlink:href="#c" transform="matrix(1,0,0,1,-366.56910741120794,-934.8347325678425) translate(119.92500000000001 61.8375)"/><use xlink:href="#d" transform="matrix(1,0,0,1,-366.56910741120794,-934.8347325678425) translate(66.525 83.4375)"/><path d="M23.43-940.84a6 6 0 0 1 6-6h190a6 6 0 0 1 6 6v150a6 6 0 0 1-6 6h-190a6 6 0 0 1-6-6z" stroke="#febed9" stroke-width="2" fill="#fff0f0"/><use xlink:href="#e" transform="matrix(1,0,0,1,35.43089258879206,-934.8347325678425) translate(27.599999999999994 18.7125)"/><use xlink:href="#f" transform="matrix(1,0,0,1,35.43089258879206,-934.8347325678425) translate(99.55 18.7125)"/><use xlink:href="#g" transform="matrix(1,0,0,1,35.43089258879206,-934.8347325678425) translate(89 40.3125)"/><use xlink:href="#a" transform="matrix(1,0,0,1,35.43089258879206,-934.8347325678425) translate(15.574999999999989 61.9125)"/><use xlink:href="#h" transform="matrix(1,0,0,1,35.43089258879206,-934.8347325678425) translate(58.474999999999994 61.9125)"/><use xlink:href="#i" transform="matrix(1,0,0,1,35.43089258879206,-934.8347325678425) translate(137.425 61.9125)"/><use xlink:href="#j" transform="matrix(1,0,0,1,35.43089258879206,-934.8347325678425) translate(18.625 83.51250000000002)"/><use xlink:href="#k" transform="matrix(1,0,0,1,35.43089258879206,-934.8347325678425) translate(92.47500000000001 83.51250000000002)"/><use xlink:href="#l" transform="matrix(1,0,0,1,35.43089258879206,-934.8347325678425) translate(144.375 83.51250000000002)"/><use xlink:href="#m" transform="matrix(1,0,0,1,35.43089258879206,-934.8347325678425) translate(16.625 105.11250000000001)"/><use xlink:href="#n" transform="matrix(1,0,0,1,35.43089258879206,-934.8347325678425) translate(70.625 105.11250000000001)"/><use xlink:href="#o" transform="matrix(1,0,0,1,35.43089258879206,-934.8347325678425) translate(110.525 105.11250000000001)"/><use xlink:href="#p" transform="matrix(1,0,0,1,35.43089258879206,-934.8347325678425) translate(62.5 126.7125)"/><path d="M425.43-940.84a6 6 0 0 1 6-6h190a6 6 0 0 1 6 6v150a6 6 0 0 1-6 6h-190a6 6 0 0 1-6-6z" stroke="#febed9" stroke-width="2" fill="#fff0f0"/><use xlink:href="#q" transform="matrix(1,0,0,1,437.43089258879206,-934.8347325678425) translate(17.599999999999994 14.4)"/><use xlink:href="#r" transform="matrix(1,0,0,1,437.43089258879206,-934.8347325678425) translate(89.45 14.4)"/><use xlink:href="#s" transform="matrix(1,0,0,1,437.43089258879206,-934.8347325678425) translate(130.4 14.4)"/><use xlink:href="#g" transform="matrix(1,0,0,1,437.43089258879206,-934.8347325678425) translate(89 36)"/><use xlink:href="#t" transform="matrix(1,0,0,1,437.43089258879206,-934.8347325678425) translate(11.149999999999991 57.6)"/><use xlink:href="#u" transform="matrix(1,0,0,1,437.43089258879206,-934.8347325678425) translate(62.04999999999999 57.6)"/><use xlink:href="#v" transform="matrix(1,0,0,1,437.43089258879206,-934.8347325678425) translate(134.95 57.6)"/><use xlink:href="#w" transform="matrix(1,0,0,1,437.43089258879206,-934.8347325678425) translate(7.125 79.20000000000002)"/><use xlink:href="#j" transform="matrix(1,0,0,1,437.43089258879206,-934.8347325678425) translate(37.125 79.20000000000002)"/><use xlink:href="#x" transform="matrix(1,0,0,1,437.43089258879206,-934.8347325678425) translate(110.97500000000001 79.20000000000002)"/><use xlink:href="#y" transform="matrix(1,0,0,1,437.43089258879206,-934.8347325678425) translate(14.599999999999994 100.80000000000001)"/><use xlink:href="#z" transform="matrix(1,0,0,1,437.43089258879206,-934.8347325678425) translate(83.55 100.80000000000001)"/><use xlink:href="#A" transform="matrix(1,0,0,1,437.43089258879206,-934.8347325678425) translate(103.55 100.80000000000001)"/><use xlink:href="#w" transform="matrix(1,0,0,1,437.43089258879206,-934.8347325678425) translate(6.625 122.4)"/><use xlink:href="#B" transform="matrix(1,0,0,1,437.43089258879206,-934.8347325678425) translate(36.625 122.4)"/><use xlink:href="#C" transform="matrix(1,0,0,1,437.43089258879206,-934.8347325678425) translate(137.425 122.4)"/><use xlink:href="#D" transform="matrix(1,0,0,1,437.43089258879206,-934.8347325678425) translate(63.05 144)"/><path d="M827.43-940.84a6 6 0 0 1 6-6h190a6 6 0 0 1 6 6v150a6 6 0 0 1-6 6h-190a6 6 0 0 1-6-6z" stroke="#febed9" stroke-width="2" fill="#fff0f0"/><g><use xlink:href="#E" transform="matrix(1,0,0,1,839.4308925887921,-934.8347325678425) translate(31.525 18.7125)"/><use xlink:href="#F" transform="matrix(1,0,0,1,839.4308925887921,-934.8347325678425) translate(101.525 18.7125)"/><use xlink:href="#g" transform="matrix(1,0,0,1,839.4308925887921,-934.8347325678425) translate(89 40.3125)"/><use xlink:href="#t" transform="matrix(1,0,0,1,839.4308925887921,-934.8347325678425) translate(10.150000000000006 61.9125)"/><use xlink:href="#G" transform="matrix(1,0,0,1,839.4308925887921,-934.8347325678425) translate(61.050000000000004 61.9125)"/><use xlink:href="#o" transform="matrix(1,0,0,1,839.4308925887921,-934.8347325678425) translate(117 61.9125)"/><use xlink:href="#H" transform="matrix(1,0,0,1,839.4308925887921,-934.8347325678425) translate(17.07499999999999 83.51250000000002)"/><use xlink:href="#I" transform="matrix(1,0,0,1,839.4308925887921,-934.8347325678425) translate(43.02499999999999 83.51250000000002)"/><use xlink:href="#J" transform="matrix(1,0,0,1,839.4308925887921,-934.8347325678425) translate(87.975 83.51250000000002)"/><use xlink:href="#i" transform="matrix(1,0,0,1,839.4308925887921,-934.8347325678425) translate(135.925 83.51250000000002)"/><use xlink:href="#j" transform="matrix(1,0,0,1,839.4308925887921,-934.8347325678425) translate(2.6499999999999915 105.11250000000001)"/><use xlink:href="#K" transform="matrix(1,0,0,1,839.4308925887921,-934.8347325678425) translate(76.5 105.11250000000001)"/><use xlink:href="#L" transform="matrix(1,0,0,1,839.4308925887921,-934.8347325678425) translate(57.025 126.7125)"/></g><path d="M1229.43-940.84a6 6 0 0 1 6-6h190a6 6 0 0 1 6 6v150a6 6 0 0 1-6 6h-190a6 6 0 0 1-6-6z" stroke="#febed9" stroke-width="2" fill="#fff0f0"/><g><use xlink:href="#M" transform="matrix(1,0,0,1,1241.4308925887922,-934.8347325678425) translate(3.0749999999999886 18.7125)"/><use xlink:href="#I" transform="matrix(1,0,0,1,1241.4308925887922,-934.8347325678425) translate(68.975 18.7125)"/><use xlink:href="#z" transform="matrix(1,0,0,1,1241.4308925887922,-934.8347325678425) translate(113.925 18.7125)"/><use xlink:href="#N" transform="matrix(1,0,0,1,1241.4308925887922,-934.8347325678425) translate(133.925 18.7125)"/><use xlink:href="#g" transform="matrix(1,0,0,1,1241.4308925887922,-934.8347325678425) translate(89 40.3125)"/><use xlink:href="#t" transform="matrix(1,0,0,1,1241.4308925887922,-934.8347325678425) translate(15.075000000000003 61.9125)"/><use xlink:href="#O" transform="matrix(1,0,0,1,1241.4308925887922,-934.8347325678425) translate(65.975 61.9125)"/><use xlink:href="#i" transform="matrix(1,0,0,1,1241.4308925887922,-934.8347325678425) translate(137.925 61.9125)"/><use xlink:href="#P" transform="matrix(1,0,0,1,1241.4308925887922,-934.8347325678425) translate(1.5499999999999972 83.51250000000002)"/><use xlink:href="#I" transform="matrix(1,0,0,1,1241.4308925887922,-934.8347325678425) translate(78.5 83.51250000000002)"/><use xlink:href="#Q" transform="matrix(1,0,0,1,1241.4308925887922,-934.8347325678425) translate(123.45 83.51250000000002)"/><use xlink:href="#R" transform="matrix(1,0,0,1,1241.4308925887922,-934.8347325678425) translate(2.0749999999999886 105.11250000000001)"/><use xlink:href="#w" transform="matrix(1,0,0,1,1241.4308925887922,-934.8347325678425) translate(36.02499999999999 105.11250000000001)"/><use xlink:href="#S" transform="matrix(1,0,0,1,1241.4308925887922,-934.8347325678425) translate(66.02499999999999 105.11250000000001)"/><use xlink:href="#T" transform="matrix(1,0,0,1,1241.4308925887922,-934.8347325678425) translate(112.02499999999999 105.11250000000001)"/><use xlink:href="#z" transform="matrix(1,0,0,1,1241.4308925887922,-934.8347325678425) translate(29.075000000000003 126.7125)"/><use xlink:href="#U" transform="matrix(1,0,0,1,1241.4308925887922,-934.8347325678425) translate(49.075 126.7125)"/><use xlink:href="#V" transform="matrix(1,0,0,1,1241.4308925887922,-934.8347325678425) translate(90.025 126.7125)"/></g><path d="M1631.43-940.84a6 6 0 0 1 6-6h190a6 6 0 0 1 6 6v150a6 6 0 0 1-6 6h-190a6 6 0 0 1-6-6z" stroke="#febed9" stroke-width="2" fill="#fff0f0"/><g><use xlink:href="#W" transform="matrix(1,0,0,1,1643.4308925887922,-934.8347325678425) translate(1.4749999999999943 70.4625)"/><use xlink:href="#X" transform="matrix(1,0,0,1,1643.4308925887922,-934.8347325678425) translate(99.675 70.4625)"/></g><path d="M-175.07-865.84H6.05" stroke="#3a414a" fill="none"/><path d="M-175.06-865.36h-.5v-.95h.5z" stroke="#3a414a" stroke-width=".05" fill="#3a414a"/><path d="M20.8-865.84L6.56-861.2v-9.27z" stroke="#3a414a" fill="#3a414a"/><path d="M226.93-865.84h181.12" stroke="#3a414a" fill="none"/><path d="M226.94-865.36h-.5v-.95h.5z" stroke="#3a414a" stroke-width=".05" fill="#3a414a"/><path d="M422.8-865.84l-14.25 4.64v-9.27z" stroke="#3a414a" fill="#3a414a"/><path d="M628.93-865.84h181.12" stroke="#3a414a" fill="none"/><path d="M628.94-865.36h-.5v-.95h.5z" stroke="#3a414a" stroke-width=".05" fill="#3a414a"/><path d="M824.8-865.84l-14.25 4.64v-9.27z" stroke="#3a414a" fill="#3a414a"/><path d="M1030.93-865.84h181.12" stroke="#3a414a" fill="none"/><path d="M1030.94-865.36h-.5v-.95h.5z" stroke="#3a414a" stroke-width=".05" fill="#3a414a"/><path d="M1226.8-865.84l-14.25 4.64v-9.27z" stroke="#3a414a" fill="#3a414a"/><path d="M1432.93-865.84h181.12" stroke="#3a414a" fill="none"/><path d="M1432.94-865.36h-.5v-.95h.5z" stroke="#3a414a" stroke-width=".05" fill="#3a414a"/><path d="M1628.8-865.84l-14.25 4.64v-9.27z" stroke="#3a414a" fill="#3a414a"/><defs><path fill="#3a414a" d="M232-93c-1 65-40 97-104 97C67 4 28-28 28-90v-158h33c8 89-33 224 67 224 102 0 64-133 71-224h33v155" id="Y"/><path fill="#3a414a" d="M135-143c-3-34-86-38-87 0 15 53 115 12 119 90S17 21 10-45l28-5c4 36 97 45 98 0-10-56-113-15-118-90-4-57 82-63 122-42 12 7 21 19 24 35" id="Z"/><path fill="#3a414a" d="M100-194c63 0 86 42 84 106H49c0 40 14 67 53 68 26 1 43-12 49-29l28 8c-11 28-37 45-77 45C44 4 14-33 15-96c1-61 26-98 85-98zm52 81c6-60-76-77-97-28-3 7-6 17-6 28h103" id="aa"/><path fill="#3a414a" d="M114-163C36-179 61-72 57 0H25l-1-190h30c1 12-1 29 2 39 6-27 23-49 58-41v29" id="ab"/><g id="a"><use transform="matrix(0.05,0,0,0.05,0,0)" xlink:href="#Y"/><use transform="matrix(0.05,0,0,0.05,12.950000000000001,0)" xlink:href="#Z"/><use transform="matrix(0.05,0,0,0.05,21.950000000000003,0)" xlink:href="#aa"/><use transform="matrix(0.05,0,0,0.05,31.950000000000003,0)" xlink:href="#ab"/></g><path fill="#3a414a" d="M33 0v-248h34V0H33" id="ac"/><path fill="#3a414a" d="M117-194c89-4 53 116 60 194h-32v-121c0-31-8-49-39-48C34-167 62-67 57 0H25l-1-190h30c1 10-1 24 2 32 11-22 29-35 61-36" id="ad"/><path fill="#3a414a" d="M24-231v-30h32v30H24zM24 0v-190h32V0H24" id="ae"/><path fill="#3a414a" d="M59-47c-2 24 18 29 38 22v24C64 9 27 4 27-40v-127H5v-23h24l9-43h21v43h35v23H59v120" id="af"/><path fill="#3a414a" d="M141-36C126-15 110 5 73 4 37 3 15-17 15-53c-1-64 63-63 125-63 3-35-9-54-41-54-24 1-41 7-42 31l-33-3c5-37 33-52 76-52 45 0 72 20 72 64v82c-1 20 7 32 28 27v20c-31 9-61-2-59-35zM48-53c0 20 12 33 32 33 41-3 63-29 60-74-43 2-92-5-92 41" id="ag"/><g id="b"><use transform="matrix(0.05,0,0,0.05,0,0)" xlink:href="#ac"/><use transform="matrix(0.05,0,0,0.05,5,0)" xlink:href="#ad"/><use transform="matrix(0.05,0,0,0.05,15,0)" xlink:href="#ae"/><use transform="matrix(0.05,0,0,0.05,18.95,0)" xlink:href="#af"/><use transform="matrix(0.05,0,0,0.05,23.95,0)" xlink:href="#ae"/><use transform="matrix(0.05,0,0,0.05,27.899999999999995,0)" xlink:href="#ag"/><use transform="matrix(0.05,0,0,0.05,37.9,0)" xlink:href="#af"/><use transform="matrix(0.05,0,0,0.05,42.9,0)" xlink:href="#aa"/><use transform="matrix(0.05,0,0,0.05,52.900000000000006,0)" xlink:href="#Z"/></g><path fill="#3a414a" d="M127-220V0H93v-220H8v-28h204v28h-85" id="ah"/><path fill="#3a414a" d="M100-194c62-1 85 37 85 99 1 63-27 99-86 99S16-35 15-95c0-66 28-99 85-99zM99-20c44 1 53-31 53-75 0-43-8-75-51-75s-53 32-53 75 10 74 51 75" id="ai"/><path fill="#3a414a" d="M143 0L79-87 56-68V0H24v-261h32v163l83-92h37l-77 82L181 0h-38" id="aj"/><g id="c"><use transform="matrix(0.05,0,0,0.05,0,0)" xlink:href="#ah"/><use transform="matrix(0.05,0,0,0.05,8.950000000000001,0)" xlink:href="#ai"/><use transform="matrix(0.05,0,0,0.05,18.950000000000003,0)" xlink:href="#aj"/><use transform="matrix(0.05,0,0,0.05,27.950000000000003,0)" xlink:href="#aa"/><use transform="matrix(0.05,0,0,0.05,37.95,0)" xlink:href="#ad"/></g><path fill="#3a414a" d="M185-189c-5-48-123-54-124 2 14 75 158 14 163 119 3 78-121 87-175 55-17-10-28-26-33-46l33-7c5 56 141 63 141-1 0-78-155-14-162-118-5-82 145-84 179-34 5 7 8 16 11 25" id="ak"/><path fill="#3a414a" d="M206 0h-36l-40-164L89 0H53L-1-190h32L70-26l43-164h34l41 164 42-164h31" id="al"/><path fill="#3a414a" d="M115-194c55 1 70 41 70 98S169 2 115 4C84 4 66-9 55-30l1 105H24l-1-265h31l2 30c10-21 28-34 59-34zm-8 174c40 0 45-34 45-75s-6-73-45-74c-42 0-51 32-51 76 0 43 10 73 51 73" id="am"/><g id="d"><use transform="matrix(0.05,0,0,0.05,0,0)" xlink:href="#ak"/><use transform="matrix(0.05,0,0,0.05,12,0)" xlink:href="#al"/><use transform="matrix(0.05,0,0,0.05,24.950000000000003,0)" xlink:href="#ag"/><use transform="matrix(0.05,0,0,0.05,34.95,0)" xlink:href="#am"/></g><path fill="#3a414a" d="M205 0l-28-72H64L36 0H1l101-248h38L239 0h-34zm-38-99l-47-123c-12 45-31 82-46 123h93" id="an"/><path fill="#3a414a" d="M108 0H70L1-190h34L89-25l56-165h34" id="ao"/><g id="e"><use transform="matrix(0.05,0,0,0.05,0,0)" xlink:href="#an"/><use transform="matrix(0.05,0,0,0.05,12,0)" xlink:href="#am"/><use transform="matrix(0.05,0,0,0.05,22,0)" xlink:href="#am"/><use transform="matrix(0.05,0,0,0.05,32,0)" xlink:href="#ab"/><use transform="matrix(0.05,0,0,0.05,37.95,0)" xlink:href="#ai"/><use transform="matrix(0.05,0,0,0.05,47.95,0)" xlink:href="#ao"/><use transform="matrix(0.05,0,0,0.05,56.95,0)" xlink:href="#aa"/></g><path fill="#3a414a" d="M30-248c118-7 216 8 213 122C240-48 200 0 122 0H30v-248zM63-27c89 8 146-16 146-99s-60-101-146-95v194" id="ap"/><path fill="#3a414a" d="M212-179c-10-28-35-45-73-45-59 0-87 40-87 99 0 60 29 101 89 101 43 0 62-24 78-52l27 14C228-24 195 4 139 4 59 4 22-46 18-125c-6-104 99-153 187-111 19 9 31 26 39 46" id="aq"/><g id="f"><use transform="matrix(0.05,0,0,0.05,0,0)" xlink:href="#Y"/><use transform="matrix(0.05,0,0,0.05,12.950000000000001,0)" xlink:href="#ak"/><use transform="matrix(0.05,0,0,0.05,24.950000000000003,0)" xlink:href="#ap"/><use transform="matrix(0.05,0,0,0.05,37.900000000000006,0)" xlink:href="#aq"/></g><g id="h"><use transform="matrix(0.05,0,0,0.05,0,0)" xlink:href="#ag"/><use transform="matrix(0.05,0,0,0.05,10,0)" xlink:href="#am"/><use transform="matrix(0.05,0,0,0.05,20,0)" xlink:href="#am"/><use transform="matrix(0.05,0,0,0.05,30,0)" xlink:href="#ab"/><use transform="matrix(0.05,0,0,0.05,35.95,0)" xlink:href="#ai"/><use transform="matrix(0.05,0,0,0.05,45.95,0)" xlink:href="#ao"/><use transform="matrix(0.05,0,0,0.05,54.95,0)" xlink:href="#aa"/><use transform="matrix(0.05,0,0,0.05,64.95,0)" xlink:href="#Z"/></g><path fill="#3a414a" d="M106-169C34-169 62-67 57 0H25v-261h32l-1 103c12-21 28-36 61-36 89 0 53 116 60 194h-32v-121c2-32-8-49-39-48" id="ar"/><g id="i"><use transform="matrix(0.05,0,0,0.05,0,0)" xlink:href="#af"/><use transform="matrix(0.05,0,0,0.05,5,0)" xlink:href="#ar"/><use transform="matrix(0.05,0,0,0.05,15,0)" xlink:href="#aa"/></g><g id="j"><use transform="matrix(0.05,0,0,0.05,0,0)" xlink:href="#Y"/><use transform="matrix(0.05,0,0,0.05,12.950000000000001,0)" xlink:href="#ad"/><use transform="matrix(0.05,0,0,0.05,22.950000000000003,0)" xlink:href="#ae"/><use transform="matrix(0.05,0,0,0.05,26.900000000000002,0)" xlink:href="#Z"/><use transform="matrix(0.05,0,0,0.05,35.900000000000006,0)" xlink:href="#al"/><use transform="matrix(0.05,0,0,0.05,48.85000000000001,0)" xlink:href="#ag"/><use transform="matrix(0.05,0,0,0.05,58.85,0)" xlink:href="#am"/></g><path fill="#3a414a" d="M84 4C-5 8 30-112 23-190h32v120c0 31 7 50 39 49 72-2 45-101 50-169h31l1 190h-30c-1-10 1-25-2-33-11 22-28 36-60 37" id="as"/><g id="k"><use transform="matrix(0.05,0,0,0.05,0,0)" xlink:href="#ab"/><use transform="matrix(0.05,0,0,0.05,5.95,0)" xlink:href="#ai"/><use transform="matrix(0.05,0,0,0.05,15.949999999999998,0)" xlink:href="#as"/><use transform="matrix(0.05,0,0,0.05,25.950000000000003,0)" xlink:href="#af"/><use transform="matrix(0.05,0,0,0.05,30.950000000000003,0)" xlink:href="#aa"/><use transform="matrix(0.05,0,0,0.05,40.95,0)" xlink:href="#ab"/></g><g id="l"><use transform="matrix(0.05,0,0,0.05,0,0)" xlink:href="#af"/><use transform="matrix(0.05,0,0,0.05,5,0)" xlink:href="#ai"/></g><path fill="#3a414a" d="M85-194c31 0 48 13 60 33l-1-100h32l1 261h-30c-2-10 0-23-3-31C134-8 116 4 85 4 32 4 16-35 15-94c0-66 23-100 70-100zm9 24c-40 0-46 34-46 75 0 40 6 74 45 74 42 0 51-32 51-76 0-42-9-74-50-73" id="at"/><g id="m"><use transform="matrix(0.05,0,0,0.05,0,0)" xlink:href="#Z"/><use transform="matrix(0.05,0,0,0.05,9,0)" xlink:href="#am"/><use transform="matrix(0.05,0,0,0.05,19,0)" xlink:href="#aa"/><use transform="matrix(0.05,0,0,0.05,29,0)" xlink:href="#ad"/><use transform="matrix(0.05,0,0,0.05,39,0)" xlink:href="#at"/></g><g id="n"><use transform="matrix(0.05,0,0,0.05,0,0)" xlink:href="#af"/><use transform="matrix(0.05,0,0,0.05,5,0)" xlink:href="#ar"/><use transform="matrix(0.05,0,0,0.05,15,0)" xlink:href="#aa"/><use transform="matrix(0.05,0,0,0.05,25,0)" xlink:href="#ae"/><use transform="matrix(0.05,0,0,0.05,28.950000000000003,0)" xlink:href="#ab"/></g><g id="o"><use transform="matrix(0.05,0,0,0.05,0,0)" xlink:href="#Y"/><use transform="matrix(0.05,0,0,0.05,12.950000000000001,0)" xlink:href="#ak"/><use transform="matrix(0.05,0,0,0.05,24.950000000000003,0)" xlink:href="#ap"/><use transform="matrix(0.05,0,0,0.05,37.900000000000006,0)" xlink:href="#aq"/></g><g id="p"><use transform="matrix(0.05,0,0,0.05,0,0)" xlink:href="#af"/><use transform="matrix(0.05,0,0,0.05,5,0)" xlink:href="#ai"/><use transform="matrix(0.05,0,0,0.05,15,0)" xlink:href="#aj"/><use transform="matrix(0.05,0,0,0.05,24,0)" xlink:href="#aa"/><use transform="matrix(0.05,0,0,0.05,34,0)" xlink:href="#ad"/><use transform="matrix(0.05,0,0,0.05,44,0)" xlink:href="#Z"/></g><path fill="#3a414a" d="M233-177c-1 41-23 64-60 70L243 0h-38l-65-103H63V0H30v-248c88 3 205-21 203 71zM63-129c60-2 137 13 137-47 0-61-80-42-137-45v92" id="au"/><g id="q"><use transform="matrix(0.05,0,0,0.05,0,0)" xlink:href="#au"/><use transform="matrix(0.05,0,0,0.05,12.950000000000001,0)" xlink:href="#aa"/><use transform="matrix(0.05,0,0,0.05,22.950000000000003,0)" xlink:href="#af"/><use transform="matrix(0.05,0,0,0.05,27.950000000000003,0)" xlink:href="#ab"/><use transform="matrix(0.05,0,0,0.05,33.900000000000006,0)" xlink:href="#ae"/><use transform="matrix(0.05,0,0,0.05,37.85000000000001,0)" xlink:href="#aa"/><use transform="matrix(0.05,0,0,0.05,47.85000000000001,0)" xlink:href="#ao"/><use transform="matrix(0.05,0,0,0.05,56.85,0)" xlink:href="#aa"/></g><path fill="#3a414a" d="M30-248c87 1 191-15 191 75 0 78-77 80-158 76V0H30v-248zm33 125c57 0 124 11 124-50 0-59-68-47-124-48v98" id="av"/><path fill="#3a414a" d="M24 0v-261h32V0H24" id="aw"/><g id="r"><use transform="matrix(0.05,0,0,0.05,0,0)" xlink:href="#av"/><use transform="matrix(0.05,0,0,0.05,12,0)" xlink:href="#ai"/><use transform="matrix(0.05,0,0,0.05,22,0)" xlink:href="#ai"/><use transform="matrix(0.05,0,0,0.05,32,0)" xlink:href="#aw"/></g><path fill="#3a414a" d="M101-234c-31-9-42 10-38 44h38v23H63V0H32v-167H5v-23h27c-7-52 17-82 69-68v24" id="ax"/><g id="s"><use transform="matrix(0.05,0,0,0.05,0,0)" xlink:href="#ac"/><use transform="matrix(0.05,0,0,0.05,5,0)" xlink:href="#ad"/><use transform="matrix(0.05,0,0,0.05,15,0)" xlink:href="#ax"/><use transform="matrix(0.05,0,0,0.05,20,0)" xlink:href="#ai"/></g><path fill="#3a414a" d="M96-169c-40 0-48 33-48 73s9 75 48 75c24 0 41-14 43-38l32 2c-6 37-31 61-74 61-59 0-76-41-82-99-10-93 101-131 147-64 4 7 5 14 7 22l-32 3c-4-21-16-35-41-35" id="ay"/><g id="t"><use transform="matrix(0.05,0,0,0.05,0,0)" xlink:href="#ak"/><use transform="matrix(0.05,0,0,0.05,12,0)" xlink:href="#ay"/><use transform="matrix(0.05,0,0,0.05,21,0)" xlink:href="#ab"/><use transform="matrix(0.05,0,0,0.05,26.950000000000003,0)" xlink:href="#ae"/><use transform="matrix(0.05,0,0,0.05,30.899999999999995,0)" xlink:href="#am"/><use transform="matrix(0.05,0,0,0.05,40.9,0)" xlink:href="#af"/></g><g id="u"><use transform="matrix(0.05,0,0,0.05,0,0)" xlink:href="#ae"/><use transform="matrix(0.05,0,0,0.05,3.95,0)" xlink:href="#ad"/><use transform="matrix(0.05,0,0,0.05,13.949999999999998,0)" xlink:href="#af"/><use transform="matrix(0.05,0,0,0.05,18.95,0)" xlink:href="#aa"/><use transform="matrix(0.05,0,0,0.05,28.950000000000003,0)" xlink:href="#ab"/><use transform="matrix(0.05,0,0,0.05,34.9,0)" xlink:href="#ag"/><use transform="matrix(0.05,0,0,0.05,44.9,0)" xlink:href="#ay"/><use transform="matrix(0.05,0,0,0.05,53.900000000000006,0)" xlink:href="#af"/><use transform="matrix(0.05,0,0,0.05,58.900000000000006,0)" xlink:href="#Z"/></g><g id="v"><use transform="matrix(0.05,0,0,0.05,0,0)" xlink:href="#al"/><use transform="matrix(0.05,0,0,0.05,12.950000000000001,0)" xlink:href="#ae"/><use transform="matrix(0.05,0,0,0.05,16.900000000000002,0)" xlink:href="#af"/><use transform="matrix(0.05,0,0,0.05,21.900000000000002,0)" xlink:href="#ar"/></g><g id="w"><use transform="matrix(0.05,0,0,0.05,0,0)" xlink:href="#af"/><use transform="matrix(0.05,0,0,0.05,5,0)" xlink:href="#ar"/><use transform="matrix(0.05,0,0,0.05,15,0)" xlink:href="#aa"/></g><path fill="#3a414a" d="M63-220v92h138v28H63V0H30v-248h175v28H63" id="az"/><path fill="#3a414a" d="M179-190L93 31C79 59 56 82 12 73V49c39 6 53-20 64-50L1-190h34L92-34l54-156h33" id="aA"/><g id="x"><use transform="matrix(0.05,0,0,0.05,0,0)" xlink:href="#az"/><use transform="matrix(0.05,0,0,0.05,10.950000000000001,0)" xlink:href="#ag"/><use transform="matrix(0.05,0,0,0.05,20.950000000000003,0)" xlink:href="#ay"/><use transform="matrix(0.05,0,0,0.05,29.950000000000003,0)" xlink:href="#af"/><use transform="matrix(0.05,0,0,0.05,34.95,0)" xlink:href="#ai"/><use transform="matrix(0.05,0,0,0.05,44.95,0)" xlink:href="#ab"/><use transform="matrix(0.05,0,0,0.05,50.900000000000006,0)" xlink:href="#aA"/></g><g id="y"><use transform="matrix(0.05,0,0,0.05,0,0)" xlink:href="#ay"/><use transform="matrix(0.05,0,0,0.05,9,0)" xlink:href="#ai"/><use transform="matrix(0.05,0,0,0.05,19,0)" xlink:href="#ad"/><use transform="matrix(0.05,0,0,0.05,29,0)" xlink:href="#af"/><use transform="matrix(0.05,0,0,0.05,34,0)" xlink:href="#ab"/><use transform="matrix(0.05,0,0,0.05,39.95,0)" xlink:href="#ag"/><use transform="matrix(0.05,0,0,0.05,49.95,0)" xlink:href="#ay"/><use transform="matrix(0.05,0,0,0.05,58.95,0)" xlink:href="#af"/></g><g id="z"><use transform="matrix(0.05,0,0,0.05,0,0)" xlink:href="#af"/><use transform="matrix(0.05,0,0,0.05,5,0)" xlink:href="#ai"/></g><g id="A"><use transform="matrix(0.05,0,0,0.05,0,0)" xlink:href="#ab"/><use transform="matrix(0.05,0,0,0.05,5.95,0)" xlink:href="#aa"/><use transform="matrix(0.05,0,0,0.05,15.949999999999998,0)" xlink:href="#af"/><use transform="matrix(0.05,0,0,0.05,20.95,0)" xlink:href="#ab"/><use transform="matrix(0.05,0,0,0.05,26.899999999999995,0)" xlink:href="#ae"/><use transform="matrix(0.05,0,0,0.05,30.849999999999994,0)" xlink:href="#aa"/><use transform="matrix(0.05,0,0,0.05,40.849999999999994,0)" xlink:href="#ao"/><use transform="matrix(0.05,0,0,0.05,49.849999999999994,0)" xlink:href="#aa"/></g><path fill="#3a414a" d="M0 4l72-265h28L28 4H0" id="aB"/><path fill="#3a414a" d="M30 0v-248h33v221h125V0H30" id="aC"/><path fill="#3a414a" d="M190 0L58-211 59 0H30v-248h39L202-35l-2-213h31V0h-41" id="aD"/><path fill="#3a414a" d="M194 0L95-120 63-95V0H30v-248h33v124l119-124h40L117-140 236 0h-42" id="aE"/><g id="B"><use transform="matrix(0.05,0,0,0.05,0,0)" xlink:href="#Y"/><use transform="matrix(0.05,0,0,0.05,12.950000000000001,0)" xlink:href="#ak"/><use transform="matrix(0.05,0,0,0.05,24.950000000000003,0)" xlink:href="#ap"/><use transform="matrix(0.05,0,0,0.05,37.900000000000006,0)" xlink:href="#aq"/><use transform="matrix(0.05,0,0,0.05,50.85000000000001,0)" xlink:href="#aB"/><use transform="matrix(0.05,0,0,0.05,55.85,0)" xlink:href="#aC"/><use transform="matrix(0.05,0,0,0.05,65.85000000000001,0)" xlink:href="#ac"/><use transform="matrix(0.05,0,0,0.05,70.85000000000001,0)" xlink:href="#aD"/><use transform="matrix(0.05,0,0,0.05,83.80000000000001,0)" xlink:href="#aE"/></g><g id="C"><use transform="matrix(0.05,0,0,0.05,0,0)" xlink:href="#am"/><use transform="matrix(0.05,0,0,0.05,10,0)" xlink:href="#ai"/><use transform="matrix(0.05,0,0,0.05,20,0)" xlink:href="#ai"/><use transform="matrix(0.05,0,0,0.05,30,0)" xlink:href="#aw"/></g><g id="D"><use transform="matrix(0.05,0,0,0.05,0,0)" xlink:href="#at"/><use transform="matrix(0.05,0,0,0.05,10,0)" xlink:href="#aa"/><use transform="matrix(0.05,0,0,0.05,20,0)" xlink:href="#af"/><use transform="matrix(0.05,0,0,0.05,25,0)" xlink:href="#ag"/><use transform="matrix(0.05,0,0,0.05,35,0)" xlink:href="#ae"/><use transform="matrix(0.05,0,0,0.05,38.95,0)" xlink:href="#aw"/><use transform="matrix(0.05,0,0,0.05,42.900000000000006,0)" xlink:href="#Z"/></g><path fill="#3a414a" d="M30 0v-248h187v28H63v79h144v27H63v87h162V0H30" id="aF"/><path fill="#3a414a" d="M141 0L90-78 38 0H4l68-98-65-92h35l48 74 47-74h35l-64 92 68 98h-35" id="aG"/><g id="E"><use transform="matrix(0.05,0,0,0.05,0,0)" xlink:href="#aF"/><use transform="matrix(0.05,0,0,0.05,12,0)" xlink:href="#aG"/><use transform="matrix(0.05,0,0,0.05,21,0)" xlink:href="#aa"/><use transform="matrix(0.05,0,0,0.05,31,0)" xlink:href="#ay"/><use transform="matrix(0.05,0,0,0.05,40,0)" xlink:href="#as"/><use transform="matrix(0.05,0,0,0.05,50,0)" xlink:href="#af"/><use transform="matrix(0.05,0,0,0.05,55,0)" xlink:href="#aa"/></g><g id="F"><use transform="matrix(0.05,0,0,0.05,0,0)" xlink:href="#ak"/><use transform="matrix(0.05,0,0,0.05,12,0)" xlink:href="#al"/><use transform="matrix(0.05,0,0,0.05,24.950000000000003,0)" xlink:href="#ag"/><use transform="matrix(0.05,0,0,0.05,34.95,0)" xlink:href="#am"/></g><g id="G"><use transform="matrix(0.05,0,0,0.05,0,0)" xlink:href="#Z"/><use transform="matrix(0.05,0,0,0.05,9,0)" xlink:href="#al"/><use transform="matrix(0.05,0,0,0.05,21.950000000000003,0)" xlink:href="#ag"/><use transform="matrix(0.05,0,0,0.05,31.950000000000003,0)" xlink:href="#am"/><use transform="matrix(0.05,0,0,0.05,41.95,0)" xlink:href="#Z"/></g><g id="H"><use transform="matrix(0.05,0,0,0.05,0,0)" xlink:href="#ax"/><use transform="matrix(0.05,0,0,0.05,5,0)" xlink:href="#ai"/><use transform="matrix(0.05,0,0,0.05,15,0)" xlink:href="#ab"/></g><g id="I"><use transform="matrix(0.05,0,0,0.05,0,0)" xlink:href="#aC"/><use transform="matrix(0.05,0,0,0.05,10,0)" xlink:href="#ac"/><use transform="matrix(0.05,0,0,0.05,15,0)" xlink:href="#aD"/><use transform="matrix(0.05,0,0,0.05,27.950000000000003,0)" xlink:href="#aE"/></g><path fill="#3a414a" d="M177-190C167-65 218 103 67 71c-23-6-38-20-44-43l32-5c15 47 100 32 89-28v-30C133-14 115 1 83 1 29 1 15-40 15-95c0-56 16-97 71-98 29-1 48 16 59 35 1-10 0-23 2-32h30zM94-22c36 0 50-32 50-73 0-42-14-75-50-75-39 0-46 34-46 75s6 73 46 73" id="aH"/><g id="J"><use transform="matrix(0.05,0,0,0.05,0,0)" xlink:href="#as"/><use transform="matrix(0.05,0,0,0.05,10,0)" xlink:href="#Z"/><use transform="matrix(0.05,0,0,0.05,19,0)" xlink:href="#ae"/><use transform="matrix(0.05,0,0,0.05,22.95,0)" xlink:href="#ad"/><use transform="matrix(0.05,0,0,0.05,32.95,0)" xlink:href="#aH"/></g><g id="K"><use transform="matrix(0.05,0,0,0.05,0,0)" xlink:href="#ak"/><use transform="matrix(0.05,0,0,0.05,12,0)" xlink:href="#al"/><use transform="matrix(0.05,0,0,0.05,24.950000000000003,0)" xlink:href="#ag"/><use transform="matrix(0.05,0,0,0.05,34.95,0)" xlink:href="#am"/><use transform="matrix(0.05,0,0,0.05,44.95,0)" xlink:href="#au"/><use transform="matrix(0.05,0,0,0.05,57.900000000000006,0)" xlink:href="#ai"/><use transform="matrix(0.05,0,0,0.05,67.9,0)" xlink:href="#as"/><use transform="matrix(0.05,0,0,0.05,77.9,0)" xlink:href="#af"/><use transform="matrix(0.05,0,0,0.05,82.9,0)" xlink:href="#aa"/><use transform="matrix(0.05,0,0,0.05,92.9,0)" xlink:href="#ab"/></g><g id="L"><use transform="matrix(0.05,0,0,0.05,0,0)" xlink:href="#ay"/><use transform="matrix(0.05,0,0,0.05,9,0)" xlink:href="#ai"/><use transform="matrix(0.05,0,0,0.05,19,0)" xlink:href="#ad"/><use transform="matrix(0.05,0,0,0.05,29,0)" xlink:href="#af"/><use transform="matrix(0.05,0,0,0.05,34,0)" xlink:href="#ab"/><use transform="matrix(0.05,0,0,0.05,39.95,0)" xlink:href="#ag"/><use transform="matrix(0.05,0,0,0.05,49.95,0)" xlink:href="#ay"/><use transform="matrix(0.05,0,0,0.05,58.95,0)" xlink:href="#af"/></g><g id="M"><use transform="matrix(0.05,0,0,0.05,0,0)" xlink:href="#ap"/><use transform="matrix(0.05,0,0,0.05,12.950000000000001,0)" xlink:href="#aa"/><use transform="matrix(0.05,0,0,0.05,22.950000000000003,0)" xlink:href="#am"/><use transform="matrix(0.05,0,0,0.05,32.95,0)" xlink:href="#ai"/><use transform="matrix(0.05,0,0,0.05,42.95,0)" xlink:href="#Z"/><use transform="matrix(0.05,0,0,0.05,51.95,0)" xlink:href="#ae"/><use transform="matrix(0.05,0,0,0.05,55.900000000000006,0)" xlink:href="#af"/></g><g id="N"><use transform="matrix(0.05,0,0,0.05,0,0)" xlink:href="#an"/><use transform="matrix(0.05,0,0,0.05,12,0)" xlink:href="#ag"/><use transform="matrix(0.05,0,0,0.05,22,0)" xlink:href="#ao"/><use transform="matrix(0.05,0,0,0.05,31,0)" xlink:href="#aa"/></g><g id="O"><use transform="matrix(0.05,0,0,0.05,0,0)" xlink:href="#at"/><use transform="matrix(0.05,0,0,0.05,10,0)" xlink:href="#aa"/><use transform="matrix(0.05,0,0,0.05,20,0)" xlink:href="#am"/><use transform="matrix(0.05,0,0,0.05,30,0)" xlink:href="#ai"/><use transform="matrix(0.05,0,0,0.05,40,0)" xlink:href="#Z"/><use transform="matrix(0.05,0,0,0.05,49,0)" xlink:href="#ae"/><use transform="matrix(0.05,0,0,0.05,52.95,0)" xlink:href="#af"/><use transform="matrix(0.05,0,0,0.05,57.95,0)" xlink:href="#Z"/></g><g id="P"><use transform="matrix(0.05,0,0,0.05,0,0)" xlink:href="#Z"/><use transform="matrix(0.05,0,0,0.05,9,0)" xlink:href="#al"/><use transform="matrix(0.05,0,0,0.05,21.950000000000003,0)" xlink:href="#ag"/><use transform="matrix(0.05,0,0,0.05,31.950000000000003,0)" xlink:href="#am"/><use transform="matrix(0.05,0,0,0.05,41.95,0)" xlink:href="#am"/><use transform="matrix(0.05,0,0,0.05,51.95,0)" xlink:href="#aa"/><use transform="matrix(0.05,0,0,0.05,61.95,0)" xlink:href="#at"/></g><g id="Q"><use transform="matrix(0.05,0,0,0.05,0,0)" xlink:href="#af"/><use transform="matrix(0.05,0,0,0.05,5,0)" xlink:href="#ai"/><use transform="matrix(0.05,0,0,0.05,15,0)" xlink:href="#aj"/><use transform="matrix(0.05,0,0,0.05,24,0)" xlink:href="#aa"/><use transform="matrix(0.05,0,0,0.05,34,0)" xlink:href="#ad"/><use transform="matrix(0.05,0,0,0.05,44,0)" xlink:href="#Z"/></g><g id="R"><use transform="matrix(0.05,0,0,0.05,0,0)" xlink:href="#ae"/><use transform="matrix(0.05,0,0,0.05,3.95,0)" xlink:href="#ad"/><use transform="matrix(0.05,0,0,0.05,13.949999999999998,0)" xlink:href="#af"/><use transform="matrix(0.05,0,0,0.05,18.95,0)" xlink:href="#ai"/></g><g id="S"><use transform="matrix(0.05,0,0,0.05,0,0)" xlink:href="#an"/><use transform="matrix(0.05,0,0,0.05,12,0)" xlink:href="#ag"/><use transform="matrix(0.05,0,0,0.05,22,0)" xlink:href="#ao"/><use transform="matrix(0.05,0,0,0.05,31,0)" xlink:href="#aa"/></g><g id="T"><use transform="matrix(0.05,0,0,0.05,0,0)" xlink:href="#am"/><use transform="matrix(0.05,0,0,0.05,10,0)" xlink:href="#ab"/><use transform="matrix(0.05,0,0,0.05,15.949999999999998,0)" xlink:href="#ai"/><use transform="matrix(0.05,0,0,0.05,25.950000000000003,0)" xlink:href="#af"/><use transform="matrix(0.05,0,0,0.05,30.950000000000003,0)" xlink:href="#ai"/><use transform="matrix(0.05,0,0,0.05,40.95,0)" xlink:href="#ay"/><use transform="matrix(0.05,0,0,0.05,49.95,0)" xlink:href="#ai"/><use transform="matrix(0.05,0,0,0.05,59.95,0)" xlink:href="#aw"/></g><g id="U"><use transform="matrix(0.05,0,0,0.05,0,0)" xlink:href="#aa"/><use transform="matrix(0.05,0,0,0.05,10,0)" xlink:href="#ag"/><use transform="matrix(0.05,0,0,0.05,20,0)" xlink:href="#ab"/><use transform="matrix(0.05,0,0,0.05,25.950000000000003,0)" xlink:href="#ad"/></g><g id="V"><use transform="matrix(0.05,0,0,0.05,0,0)" xlink:href="#ae"/><use transform="matrix(0.05,0,0,0.05,3.95,0)" xlink:href="#ad"/><use transform="matrix(0.05,0,0,0.05,13.949999999999998,0)" xlink:href="#af"/><use transform="matrix(0.05,0,0,0.05,18.95,0)" xlink:href="#aa"/><use transform="matrix(0.05,0,0,0.05,28.950000000000003,0)" xlink:href="#ab"/><use transform="matrix(0.05,0,0,0.05,34.9,0)" xlink:href="#aa"/><use transform="matrix(0.05,0,0,0.05,44.9,0)" xlink:href="#Z"/><use transform="matrix(0.05,0,0,0.05,53.900000000000006,0)" xlink:href="#af"/></g><g id="W"><use transform="matrix(0.05,0,0,0.05,0,0)" xlink:href="#ah"/><use transform="matrix(0.05,0,0,0.05,10.3,0)" xlink:href="#ab"/><use transform="matrix(0.05,0,0,0.05,16.25,0)" xlink:href="#ag"/><use transform="matrix(0.05,0,0,0.05,26.25,0)" xlink:href="#ad"/><use transform="matrix(0.05,0,0,0.05,36.25,0)" xlink:href="#Z"/><use transform="matrix(0.05,0,0,0.05,45.25,0)" xlink:href="#ag"/><use transform="matrix(0.05,0,0,0.05,55.25,0)" xlink:href="#ay"/><use transform="matrix(0.05,0,0,0.05,64.25,0)" xlink:href="#af"/><use transform="matrix(0.05,0,0,0.05,69.25,0)" xlink:href="#ae"/><use transform="matrix(0.05,0,0,0.05,73.2,0)" xlink:href="#ai"/><use transform="matrix(0.05,0,0,0.05,83.2,0)" xlink:href="#ad"/></g><path fill="#3a414a" d="M210-169c-67 3-38 105-44 169h-31v-121c0-29-5-50-35-48C34-165 62-65 56 0H25l-1-190h30c1 10-1 24 2 32 10-44 99-50 107 0 11-21 27-35 58-36 85-2 47 119 55 194h-31v-121c0-29-5-49-35-48" id="aI"/><g id="X"><use transform="matrix(0.05,0,0,0.05,0,0)" xlink:href="#aq"/><use transform="matrix(0.05,0,0,0.05,12.950000000000001,0)" xlink:href="#ai"/><use transform="matrix(0.05,0,0,0.05,22.950000000000003,0)" xlink:href="#aI"/><use transform="matrix(0.05,0,0,0.05,37.900000000000006,0)" xlink:href="#am"/><use transform="matrix(0.05,0,0,0.05,47.900000000000006,0)" xlink:href="#aw"/><use transform="matrix(0.05,0,0,0.05,51.85,0)" xlink:href="#aa"/><use transform="matrix(0.05,0,0,0.05,61.85,0)" xlink:href="#af"/><use transform="matrix(0.05,0,0,0.05,66.85000000000001,0)" xlink:href="#aa"/></g></defs></g></svg>